g dirt_pile01
v -3.873884 1.085782 -0.6765395
v -3.266629 0.8313522 -2.071137
v -3.11574 1.935168 -0.9454886
v -3.11574 1.935168 -0.9454886
v -3.266629 0.8313522 -2.071137
v -2.348924 1.804275 -1.635483
v 4.662581 0.2530138 2.089843
v 3.942245 0.9668292 0.6765396
v 4.661231 0.2456889 0.6188478
v -2.348924 1.804275 -1.635483
v -3.266629 0.8313522 -2.071137
v -2.509133 0.997011 -2.071137
v 5.531157 0.2456889 -0.6188477
v 4.812172 0.9668292 -0.6765395
v 4.662581 0.2530138 -2.089843
v -4.386528 1.085782 0.6765396
v -3.266629 0.8313522 2.071137
v -4.414367 -0.02086791 2.089843
v -4.414367 -0.02086791 -2.089843
v -3.266629 0.8313522 -2.071137
v -3.873884 1.085782 -0.6765395
v -2.348924 1.804275 -1.635483
v -2.509133 0.997011 -2.071137
v -1.222399 1.148273 -3.006774
v -1.252261 1.778842 -1.715214
v 1.197537 1.148273 -2.265657
v -1.471695 2.447815 -0.8618701
v -3.11574 1.935168 -0.9454886
v 0.8731653 1.786047 -1.69096
v 2.484271 1.278009 -3.063072
v 2.484271 1.786244 -1.380417
v 3.514844 1.105234 -2.071137
v 0.9513146 2.447815 -0.8618701
v 2.838802 1.915853 -0.6960434
v 4.812172 0.9668292 -0.6765395
v 4.662581 0.2530138 -2.089843
v 3.942245 0.9668292 0.6765396
v 2.838802 1.915853 0.6960433
v 0.9513146 2.447815 0.369426
v -1.471695 2.447815 0.369426
v 3.514844 1.105234 2.071137
v 4.662581 0.2530138 2.089843
v 2.484271 1.786244 1.380417
v 2.484271 1.191519 2.071137
v 1.197537 1.278009 2.071137
v 1.024956 1.795887 1.337809
v -1.222399 1.191519 2.950255
v -1.502935 1.796613 1.32893
v -2.509133 0.997011 2.071137
v -2.348924 1.804275 1.143039
v -3.266629 0.8313522 2.071137
v -3.11574 1.935168 0.4530443
v -4.386528 1.085782 0.6765396
v -3.873884 1.085782 -0.6765395
v -4.414367 -0.02086791 -2.089843
v -3.873884 1.085782 -0.6765395
v -4.413017 -0.02819305 -0.6188477
v -4.386528 1.085782 0.6765396
v -4.925661 -0.02819305 0.6188478
v -4.414367 -0.02086791 2.089843
v 4.661231 0.2456889 0.6188478
v 3.942245 0.9668292 0.6765396
v 4.812172 0.9668292 -0.6765395
v 5.531157 0.2456889 -0.6188477
v -1.222399 1.148273 -3.006774
v -2.509133 0.997011 -2.071137
v -2.509133 -0.03344854 -3.494829
v -1.222399 0.1178139 -3.494829
v 1.197537 1.148273 -2.265657
v -1.222399 1.148273 -3.006774
v -1.222399 0.1178139 -3.494829
v 1.197537 0.1178139 -2.753712
v -1.222399 1.191519 2.950255
v 1.197537 1.278009 2.071137
v 1.197537 0.2475494 3.467009
v -1.222399 0.161059 3.842781
v 1.197537 1.278009 2.071137
v 2.484271 1.191519 2.071137
v 2.484271 0.161059 3.026825
v 1.197537 0.2475494 3.467009
v -2.509133 0.997011 2.071137
v -1.222399 1.191519 2.950255
v -1.222399 0.161059 3.842781
v -2.509133 -0.03344854 2.559192
v -3.266629 0.8313522 2.071137
v -2.509133 0.997011 2.071137
v -2.509133 -0.03344854 2.559192
v -4.414367 -0.02086791 2.089843
v 2.484271 1.278009 -3.063072
v 1.197537 1.148273 -2.265657
v 1.197537 0.1178139 -2.753712
v 2.484271 0.247549 -3.551127
v 3.514844 1.105234 -2.071137
v 2.484271 1.278009 -3.063072
v 2.484271 0.247549 -3.551127
v 4.662581 0.2530138 -2.089843
v 3.514844 1.105234 2.071137
v 4.662581 0.2530138 2.089843
v 2.484271 0.161059 3.026825
v 2.484271 1.191519 2.071137
v -3.266629 0.8313522 -2.071137
v -4.414367 -0.02086791 -2.089843
v -2.509133 -0.03344854 -3.494829
v -2.509133 0.997011 -2.071137

vn -0.7556535 0.6062137 -0.2479772
vn -0.4440468 0.6814592 -0.5817524
vn -0.5082007 0.8081006 -0.2978345
vn -0.5082007 0.8081006 -0.2978345
vn -0.4440468 0.6814592 -0.5817524
vn -0.2604947 0.7589468 -0.5967767
vn 0.5530574 0.7622282 0.3363564
vn 0.6154077 0.7696288 0.1701314
vn 0.6854143 0.6835122 0.2510351
vn -0.2604947 0.7589468 -0.5967767
vn -0.4440468 0.6814592 -0.5817524
vn -0.2629305 0.6453233 -0.7172346
vn 0.7161266 0.6972472 0.03176317
vn 0.6275285 0.7781343 -0.02673828
vn 0.5728526 0.6511859 -0.4977919
vn -0.7501843 0.6504198 0.1190696
vn -0.3013324 0.5985972 0.742213
vn -0.5619223 0.5593498 0.6094024
vn -0.6245683 0.6845197 -0.3759618
vn -0.4440468 0.6814592 -0.5817524
vn -0.7556535 0.6062137 -0.2479772
vn -0.2604947 0.7589468 -0.5967767
vn -0.2629305 0.6453233 -0.7172346
vn -0.05534071 0.6747779 -0.7359431
vn -0.06112745 0.7948686 -0.6036946
vn -0.08029957 0.710204 -0.6994014
vn -0.1151042 0.9484113 -0.29541
vn -0.5082007 0.8081006 -0.2978345
vn 0.02953892 0.8214667 -0.5694909
vn 0.06405224 0.7068011 -0.7045066
vn 0.2189627 0.8945203 -0.3897293
vn 0.485498 0.7415457 -0.4630352
vn 0.1147983 0.9439243 -0.3095612
vn 0.3800469 0.9174982 -0.1173091
vn 0.6275285 0.7781343 -0.02673828
vn 0.5728526 0.6511859 -0.4977919
vn 0.6154077 0.7696288 0.1701314
vn 0.3988564 0.899493 0.1783979
vn 0.09269179 0.962544 0.2547885
vn -0.1239526 0.9553378 0.2682637
vn 0.396004 0.7470943 0.5338829
vn 0.5530574 0.7622282 0.3363564
vn 0.1614657 0.8654997 0.4741722
vn 0.1193389 0.7193816 0.6842867
vn 0.09026144 0.8052 0.5860938
vn 0.01724395 0.8450617 0.5343906
vn -0.1952169 0.7569894 0.6235843
vn -0.1089651 0.8548051 0.5073805
vn -0.3251204 0.6516242 0.6853339
vn -0.2552618 0.8263261 0.5020226
vn -0.3013324 0.5985972 0.742213
vn -0.4407312 0.8740772 0.2043159
vn -0.7501843 0.6504198 0.1190696
vn -0.7556535 0.6062137 -0.2479772
vn -0.6245683 0.6845197 -0.3759618
vn -0.7556535 0.6062137 -0.2479772
vn -0.8849953 0.4283859 -0.1823976
vn -0.7501843 0.6504198 0.1190696
vn -0.9028787 0.4290112 -0.02755866
vn -0.5619223 0.5593498 0.6094024
vn 0.6854143 0.6835122 0.2510351
vn 0.6154077 0.7696288 0.1701314
vn 0.6275285 0.7781343 -0.02673828
vn 0.7161266 0.6972472 0.03176317
vn -0.05534071 0.6747779 -0.7359431
vn -0.2629305 0.6453233 -0.7172346
vn -0.3437908 0.665655 -0.6623529
vn -0.05544818 0.5678822 -0.8212401
vn -0.08029957 0.710204 -0.6994014
vn -0.05534071 0.6747779 -0.7359431
vn -0.05544818 0.5678822 -0.8212401
vn -0.1387545 0.4239045 -0.8950152
vn -0.1952169 0.7569894 0.6235843
vn 0.09026144 0.8052 0.5860938
vn 0.1523328 0.7383156 0.6570272
vn -0.216116 0.658461 0.7209182
vn 0.09026144 0.8052 0.5860938
vn 0.1193389 0.7193816 0.6842867
vn 0.1925606 0.6684558 0.7183921
vn 0.1523328 0.7383156 0.6570272
vn -0.3251204 0.6516242 0.6853339
vn -0.1952169 0.7569894 0.6235843
vn -0.216116 0.658461 0.7209182
vn -0.4345725 0.4156421 0.7989922
vn -0.3013324 0.5985972 0.742213
vn -0.3251204 0.6516242 0.6853339
vn -0.4345725 0.4156421 0.7989922
vn -0.5619223 0.5593498 0.6094024
vn 0.06405224 0.7068011 -0.7045066
vn -0.08029957 0.710204 -0.6994014
vn -0.1387545 0.4239045 -0.8950152
vn -0.008042184 0.5153696 -0.8569302
vn 0.485498 0.7415457 -0.4630352
vn 0.06405224 0.7068011 -0.7045066
vn -0.008042184 0.5153696 -0.8569302
vn 0.5728526 0.6511859 -0.4977919
vn 0.396004 0.7470943 0.5338829
vn 0.5530574 0.7622282 0.3363564
vn 0.1925606 0.6684558 0.7183921
vn 0.1193389 0.7193816 0.6842867
vn -0.4440468 0.6814592 -0.5817524
vn -0.6245683 0.6845197 -0.3759618
vn -0.3437908 0.665655 -0.6623529
vn -0.2629305 0.6453233 -0.7172346

vt 0.6299304 0.3487498
vt 0.6257161 0.3428765
vt 0.6259351 0.3509128
vt 0.6891173 0.3559489
vt 0.693032 0.3630127
vt 0.6944196 0.3559754
vt 0.6780431 0.3627963
vt 0.681683 0.3555895
vt 0.6780057 0.3552953
vt 0.6318751 0.2507161
vt 0.6250625 0.2510342
vt 0.6284279 0.2531098
vt 0.7302953 0.3579811
vt 0.7354962 0.3580244
vt 0.7339342 0.3500664
vt 0.7263871 0.3435339
vt 0.7330902 0.3372142
vt 0.7263736 0.3343795
vt 0.7420605 0.3592341
vt 0.7479131 0.3591387
vt 0.7448165 0.3520272
vt 0.6752449 0.3414831
vt 0.6774665 0.3423
vt 0.6822375 0.3357386
vt 0.6756515 0.3358909
vt 0.6784583 0.3233986
vt 0.6713001 0.3370098
vt 0.6717264 0.3453933
vt 0.6755278 0.3250527
vt 0.6825246 0.3168372
vt 0.6739442 0.3168372
vt 0.6774665 0.311582
vt 0.6713001 0.3246542
vt 0.6704544 0.3150294
vt 0.670355 0.3049666
vt 0.6775618 0.3057294
vt 0.6634552 0.3094026
vt 0.6633558 0.3150294
vt 0.6650213 0.3246542
vt 0.6650213 0.3370098
vt 0.6563438 0.311582
vt 0.6562484 0.3057294
vt 0.659866 0.3168372
vt 0.6563438 0.3168372
vt 0.6563438 0.3233986
vt 0.6600832 0.3242787
vt 0.6518609 0.3357386
vt 0.6601285 0.3371691
vt 0.6563438 0.3423
vt 0.6610764 0.3414831
vt 0.6563438 0.3461627
vt 0.6645949 0.3453933
vt 0.6634552 0.3518734
vt 0.670355 0.3492593
vt 0.6770961 0.3648602
vt 0.6698892 0.359217
vt 0.669595 0.3648975
vt 0.6629895 0.359217
vt 0.6632836 0.3648975
vt 0.6557826 0.3648602
vt 0.6274173 0.3101955
vt 0.6250625 0.3148313
vt 0.6332613 0.3150531
vt 0.6351306 0.3102013
vt 0.7250664 0.346002
vt 0.7324088 0.3428765
vt 0.7323647 0.3516846
vt 0.7259707 0.3515025
vt 0.7106079 0.3527065
vt 0.6982679 0.3527065
vt 0.6982679 0.3474519
vt 0.7106079 0.3474519
vt 0.723268 0.360661
vt 0.72554 0.3735919
vt 0.7185302 0.3723559
vt 0.7187859 0.3598706
vt 0.7335634 0.3415945
vt 0.7335634 0.3350331
vt 0.7384368 0.3350331
vt 0.7406814 0.3415945
vt 0.7317843 0.3202846
vt 0.7316025 0.3123069
vt 0.7381913 0.3101955
vt 0.7375009 0.3194663
vt 0.6694787 0.2999287
vt 0.6733414 0.299084
vt 0.6733414 0.3043386
vt 0.6636261 0.3042744
vt 0.7440214 0.2984556
vt 0.7446829 0.2918942
vt 0.7499375 0.2918942
vt 0.7492759 0.2984556
vt 0.7365826 0.3647223
vt 0.7365469 0.3719999
vt 0.7309489 0.3732053
vt 0.7312352 0.3598706
vt 0.7392324 0.2873451
vt 0.7435781 0.2931977
vt 0.744047 0.2820899
vt 0.7387924 0.2820899
vt 0.7260513 0.3217072
vt 0.7317666 0.3261571
vt 0.7314795 0.3141173
vt 0.7237591 0.3185929

usemtl Standard0
usemap Standard0
f 2/2/2 1/1/1 3/3/3
f 5/5/5 4/4/4 6/6/6
f 8/8/8 7/7/7 9/9/9
f 11/11/11 10/10/10 12/12/12
f 14/14/14 13/13/13 15/15/15
f 17/17/17 16/16/16 18/18/18
f 20/20/20 19/19/19 21/21/21
f 23/23/23 22/22/22 24/24/24
f 24/24/24 22/22/22 25/25/25
f 24/24/24 25/25/25 26/26/26
f 22/22/22 27/27/27 25/25/25
f 22/22/22 28/28/28 27/27/27
f 26/26/26 25/25/25 29/29/29
f 25/25/25 27/27/27 29/29/29
f 26/26/26 29/29/29 30/30/30
f 30/30/30 29/29/29 31/31/31
f 32/32/32 30/30/30 31/31/31
f 31/31/31 29/29/29 33/33/33
f 29/29/29 27/27/27 33/33/33
f 32/32/32 31/31/31 34/34/34
f 31/31/31 33/33/33 34/34/34
f 32/32/32 34/34/34 35/35/35
f 32/32/32 35/35/35 36/36/36
f 35/35/35 34/34/34 37/37/37
f 34/34/34 33/33/33 38/38/38
f 37/37/37 34/34/34 38/38/38
f 33/33/33 27/27/27 39/39/39
f 38/38/38 33/33/33 39/39/39
f 28/28/28 40/40/40 27/27/27
f 39/39/39 27/27/27 40/40/40
f 41/41/41 37/37/37 38/38/38
f 41/41/41 42/42/42 37/37/37
f 41/41/41 38/38/38 43/43/43
f 43/43/43 38/38/38 39/39/39
f 41/41/41 43/43/43 44/44/44
f 44/44/44 43/43/43 45/45/45
f 45/45/45 43/43/43 46/46/46
f 43/43/43 39/39/39 46/46/46
f 45/45/45 46/46/46 47/47/47
f 46/46/46 39/39/39 48/48/48
f 47/47/47 46/46/46 48/48/48
f 48/48/48 39/39/39 40/40/40
f 47/47/47 48/48/48 49/49/49
f 49/49/49 48/48/48 50/50/50
f 50/50/50 48/48/48 40/40/40
f 51/51/51 49/49/49 50/50/50
f 50/50/50 40/40/40 52/52/52
f 51/51/51 50/50/50 52/52/52
f 52/52/52 40/40/40 28/28/28
f 51/51/51 52/52/52 53/53/53
f 54/54/54 52/52/52 28/28/28
f 53/53/53 52/52/52 54/54/54
f 56/56/56 55/55/55 57/57/57
f 56/56/56 57/57/57 58/58/58
f 58/58/58 57/57/57 59/59/59
f 58/58/58 59/59/59 60/60/60
f 62/62/62 61/61/61 63/63/63
f 63/63/63 61/61/61 64/64/64
f 66/66/66 65/65/65 67/67/67
f 67/67/67 65/65/65 68/68/68
f 70/70/70 69/69/69 71/71/71
f 71/71/71 69/69/69 72/72/72
f 74/74/74 73/73/73 75/75/75
f 75/75/75 73/73/73 76/76/76
f 78/78/78 77/77/77 79/79/79
f 79/79/79 77/77/77 80/80/80
f 82/82/82 81/81/81 83/83/83
f 83/83/83 81/81/81 84/84/84
f 86/86/86 85/85/85 87/87/87
f 87/87/87 85/85/85 88/88/88
f 90/90/90 89/89/89 91/91/91
f 91/91/91 89/89/89 92/92/92
f 94/94/94 93/93/93 95/95/95
f 95/95/95 93/93/93 96/96/96
f 98/98/98 97/97/97 99/99/99
f 99/99/99 97/97/97 100/100/100
f 102/102/102 101/101/101 103/103/103
f 103/103/103 101/101/101 104/104/104
