g dirt_pile02
v -3.873884 1.085782 -0.6765395
v -3.266629 0.8313522 -2.071137
v -3.11574 1.935168 -0.9454886
v -3.11574 1.935168 -0.9454886
v -3.266629 0.8313522 -2.071137
v -2.348924 1.804275 -1.635483
v 4.662581 0.2530138 2.089843
v 3.942245 0.9668292 0.6765396
v 4.661231 0.2456889 0.6188478
v -2.348924 1.804275 -1.635483
v -3.266629 0.8313522 -2.071137
v -2.509133 0.997011 -2.071137
v 5.531157 0.2456889 -0.6188477
v 4.812172 0.9668292 -0.6765395
v 4.662581 0.2530138 -2.089843
v -4.386528 1.085782 0.6765396
v -3.266629 0.8313522 2.071137
v -4.414367 -0.02086791 2.089843
v -4.414367 -0.02086791 -2.089843
v -3.266629 0.8313522 -2.071137
v -3.873884 1.085782 -0.6765395
v -2.348924 1.804275 -1.635483
v -2.509133 0.997011 -2.071137
v -1.222399 1.148273 -3.006774
v -1.252261 1.778842 -1.715214
v 1.197537 1.148273 -2.265657
v -1.471695 2.447815 -0.8618701
v -3.11574 1.935168 -0.9454886
v 0.8731653 1.786047 -1.69096
v 2.484271 1.278009 -3.063072
v 2.484271 1.786244 -1.380417
v 3.514844 1.105234 -2.071137
v 0.9513146 2.447815 -0.8618701
v 2.838802 1.915853 -0.6960434
v 4.812172 0.9668292 -0.6765395
v 4.662581 0.2530138 -2.089843
v 3.942245 0.9668292 0.6765396
v 2.838802 1.915853 0.6960433
v 0.9513146 2.447815 0.369426
v -1.471695 2.447815 0.369426
v 3.514844 1.105234 2.071137
v 4.662581 0.2530138 2.089843
v 2.484271 1.786244 1.380417
v 2.484271 1.191519 2.071137
v 1.197537 1.278009 2.071137
v 1.024956 1.795887 1.337809
v -1.222399 1.191519 2.950255
v -1.502935 1.796613 1.32893
v -2.509133 0.997011 2.071137
v -2.348924 1.804275 1.143039
v -3.266629 0.8313522 2.071137
v -3.11574 1.935168 0.4530443
v -4.386528 1.085782 0.6765396
v -3.873884 1.085782 -0.6765395
v -4.414367 -0.02086791 -2.089843
v -3.873884 1.085782 -0.6765395
v -4.413017 -0.02819305 -0.6188477
v -4.386528 1.085782 0.6765396
v -4.925661 -0.02819305 0.6188478
v -4.414367 -0.02086791 2.089843
v 4.661231 0.2456889 0.6188478
v 3.942245 0.9668292 0.6765396
v 4.812172 0.9668292 -0.6765395
v 5.531157 0.2456889 -0.6188477
v -1.222399 1.148273 -3.006774
v -2.509133 0.997011 -2.071137
v -2.509133 -0.03344854 -3.494829
v -1.222399 0.1178139 -3.494829
v 1.197537 1.148273 -2.265657
v -1.222399 1.148273 -3.006774
v -1.222399 0.1178139 -3.494829
v 1.197537 0.1178139 -2.753712
v -1.222399 1.191519 2.950255
v 1.197537 1.278009 2.071137
v 1.197537 0.2475494 3.467009
v -1.222399 0.161059 3.842781
v 1.197537 1.278009 2.071137
v 2.484271 1.191519 2.071137
v 2.484271 0.161059 3.026825
v 1.197537 0.2475494 3.467009
v -2.509133 0.997011 2.071137
v -1.222399 1.191519 2.950255
v -1.222399 0.161059 3.842781
v -2.509133 -0.03344854 2.559192
v -3.266629 0.8313522 2.071137
v -2.509133 0.997011 2.071137
v -2.509133 -0.03344854 2.559192
v -4.414367 -0.02086791 2.089843
v 2.484271 1.278009 -3.063072
v 1.197537 1.148273 -2.265657
v 1.197537 0.1178139 -2.753712
v 2.484271 0.247549 -3.551127
v 3.514844 1.105234 -2.071137
v 2.484271 1.278009 -3.063072
v 2.484271 0.247549 -3.551127
v 4.662581 0.2530138 -2.089843
v 3.514844 1.105234 2.071137
v 4.662581 0.2530138 2.089843
v 2.484271 0.161059 3.026825
v 2.484271 1.191519 2.071137
v -3.266629 0.8313522 -2.071137
v -4.414367 -0.02086791 -2.089843
v -2.509133 -0.03344854 -3.494829
v -2.509133 0.997011 -2.071137

vn -0.7608762 0.6021072 -0.2419387
vn -0.4302775 0.6906732 -0.5812332
vn -0.5366203 0.7987447 -0.2721134
vn -0.5366203 0.7987447 -0.2721134
vn -0.4302775 0.6906732 -0.5812332
vn -0.2697743 0.752284 -0.6010746
vn 0.5902535 0.7301584 0.3441938
vn 0.6170134 0.7681531 0.1709833
vn 0.6887196 0.6806101 0.2498703
vn -0.2697743 0.752284 -0.6010746
vn -0.4302775 0.6906732 -0.5812332
vn -0.3187891 0.6249987 -0.7125658
vn 0.706311 0.7070225 0.0352708
vn 0.6106167 0.7919015 -0.006266249
vn 0.5420457 0.6801105 -0.4935951
vn -0.7383531 0.6669933 0.09977311
vn -0.2961115 0.6013016 0.7421283
vn -0.5729043 0.5482683 0.6092475
vn -0.6543017 0.6556892 -0.3767771
vn -0.4302775 0.6906732 -0.5812332
vn -0.7608762 0.6021072 -0.2419387
vn -0.2697743 0.752284 -0.6010746
vn -0.3187891 0.6249987 -0.7125658
vn -0.03649377 0.6925871 -0.7204105
vn 0.01941197 0.8377869 -0.5456523
vn -0.2303087 0.5239918 -0.8199942
vn -0.114862 0.9485759 -0.2949751
vn -0.5366203 0.7987447 -0.2721134
vn -0.01339793 0.7635538 -0.6456052
vn 0.1241081 0.6640217 -0.7373413
vn 0.2551016 0.9024994 -0.347013
vn 0.473792 0.7499042 -0.4616977
vn 0.1143151 0.9436296 -0.3106366
vn 0.3871346 0.9135321 -0.1248433
vn 0.6106167 0.7919015 -0.006266249
vn 0.5420457 0.6801105 -0.4935951
vn 0.6170134 0.7681531 0.1709833
vn 0.4383576 0.8882234 0.1374839
vn 0.09258185 0.9626072 0.2545899
vn -0.1237343 0.9552326 0.2687387
vn 0.3963456 0.7437488 0.5382822
vn 0.5902535 0.7301584 0.3441938
vn 0.1638138 0.8634966 0.47701
vn 0.05426894 0.7191084 0.6927756
vn 0.1208937 0.7905248 0.6003792
vn 0.02426452 0.84069 0.5409729
vn -0.1847641 0.7791185 0.5990297
vn -0.1092087 0.856384 0.5046581
vn -0.3089826 0.661959 0.682891
vn -0.2127508 0.811758 0.5438622
vn -0.2961115 0.6013016 0.7421283
vn -0.4416699 0.8735132 0.2047009
vn -0.7383531 0.6669933 0.09977311
vn -0.7608762 0.6021072 -0.2419387
vn -0.6543017 0.6556892 -0.3767771
vn -0.7608762 0.6021072 -0.2419387
vn -0.8853106 0.4279052 -0.1819954
vn -0.7383531 0.6669933 0.09977311
vn -0.8989289 0.4367997 -0.0336571
vn -0.5729043 0.5482683 0.6092475
vn 0.6887196 0.6806101 0.2498703
vn 0.6170134 0.7681531 0.1709833
vn 0.6106167 0.7919015 -0.006266249
vn 0.706311 0.7070225 0.0352708
vn -0.03649377 0.6925871 -0.7204105
vn -0.3187891 0.6249987 -0.7125658
vn -0.3232577 0.661604 -0.6765978
vn 0.09774272 0.4259957 -0.8994299
vn -0.2303087 0.5239918 -0.8199942
vn -0.03649377 0.6925871 -0.7204105
vn 0.09774272 0.4259957 -0.8994299
vn -0.1387544 0.4239044 -0.8950152
vn -0.1847641 0.7791185 0.5990297
vn 0.1208937 0.7905248 0.6003792
vn 0.1976898 0.765345 0.6125078
vn -0.2356638 0.6062022 0.759593
vn 0.1208937 0.7905248 0.6003792
vn 0.05426894 0.7191084 0.6927756
vn 0.1807867 0.6811668 0.7094562
vn 0.1976898 0.765345 0.6125078
vn -0.3089826 0.661959 0.682891
vn -0.1847641 0.7791185 0.5990297
vn -0.2356638 0.6062022 0.759593
vn -0.4775438 0.3516161 0.805182
vn -0.2961115 0.6013016 0.7421283
vn -0.3089826 0.661959 0.682891
vn -0.4775438 0.3516161 0.805182
vn -0.5729043 0.5482683 0.6092475
vn 0.1241081 0.6640217 -0.7373413
vn -0.2303087 0.5239918 -0.8199942
vn -0.1387544 0.4239044 -0.8950152
vn 0.02461636 0.4871835 -0.8729526
vn 0.473792 0.7499042 -0.4616977
vn 0.1241081 0.6640217 -0.7373413
vn 0.02461636 0.4871835 -0.8729526
vn 0.5420457 0.6801105 -0.4935951
vn 0.3963456 0.7437488 0.5382822
vn 0.5902535 0.7301584 0.3441938
vn 0.1807867 0.6811668 0.7094562
vn 0.05426894 0.7191084 0.6927756
vn -0.4302775 0.6906732 -0.5812332
vn -0.6543017 0.6556892 -0.3767771
vn -0.3232577 0.661604 -0.6765978
vn -0.3187891 0.6249987 -0.7125658

vt 0.6560752 0.3428673
vt 0.6518609 0.336994
vt 0.6520799 0.3450302
vt 0.7072926 0.3637924
vt 0.7002288 0.3677071
vt 0.707266 0.3690947
vt 0.6508649 0.3537063
vt 0.643658 0.3500664
vt 0.6433638 0.3537437
vt 0.6549082 0.3209299
vt 0.6545901 0.3141173
vt 0.6525145 0.3174827
vt 0.7315745 0.3520705
vt 0.7263736 0.3520272
vt 0.7279356 0.3599852
vt 0.7245795 0.3428765
vt 0.7178766 0.3491962
vt 0.7245931 0.352031
vt 0.7439914 0.3154245
vt 0.7381387 0.3155199
vt 0.7412353 0.3226313
vt 0.6323422 0.3173178
vt 0.6301206 0.3165008
vt 0.6253496 0.3230622
vt 0.6319356 0.32291
vt 0.6291288 0.3354022
vt 0.6362871 0.321791
vt 0.6358607 0.3134075
vt 0.6320593 0.3337481
vt 0.6250625 0.3419636
vt 0.6336429 0.3419636
vt 0.6301206 0.3472188
vt 0.636287 0.3341466
vt 0.6371326 0.3437715
vt 0.6372321 0.3538342
vt 0.6300253 0.3530715
vt 0.6441318 0.3493982
vt 0.6442313 0.3437715
vt 0.6425658 0.3341466
vt 0.6425658 0.321791
vt 0.6512433 0.3472188
vt 0.6513387 0.3530715
vt 0.6477211 0.3419636
vt 0.6512433 0.3419636
vt 0.6512433 0.3354022
vt 0.6475039 0.3345221
vt 0.6557262 0.3230622
vt 0.6474586 0.3216317
vt 0.6512433 0.3165008
vt 0.6465107 0.3173178
vt 0.6512433 0.3126381
vt 0.6429922 0.3134075
vt 0.6441318 0.3069274
vt 0.6372321 0.3095416
vt 0.7483572 0.2507161
vt 0.7427141 0.2579229
vt 0.7483945 0.2582172
vt 0.7427141 0.2648227
vt 0.7483945 0.2645285
vt 0.7483572 0.2720295
vt 0.6770924 0.2722856
vt 0.6747376 0.2769213
vt 0.6829364 0.2771432
vt 0.6848058 0.2722913
vt 0.7209448 0.35072
vt 0.7240702 0.3580624
vt 0.7152621 0.3580183
vt 0.7154442 0.3516243
vt 0.6968819 0.3540137
vt 0.6845419 0.3540137
vt 0.6845419 0.3487591
vt 0.6968819 0.3487591
vt 0.7260311 0.3728016
vt 0.7237591 0.3598706
vt 0.7307689 0.3611067
vt 0.7305132 0.3735919
vt 0.7400277 0.3435302
vt 0.7400277 0.3500916
vt 0.7351544 0.3500916
vt 0.7329098 0.3435302
vt 0.7350523 0.3098266
vt 0.7348707 0.3018489
vt 0.7414594 0.2997376
vt 0.740769 0.3090083
vt 0.7331009 0.3245161
vt 0.7322562 0.3206535
vt 0.7375108 0.3206535
vt 0.7374466 0.3303688
vt 0.7440214 0.2899585
vt 0.7446829 0.2833971
vt 0.7499375 0.2833971
vt 0.7492759 0.2899585
vt 0.7424653 0.3647223
vt 0.7424295 0.3719999
vt 0.7368315 0.3732053
vt 0.7371178 0.3598706
vt 0.7449142 0.2761773
vt 0.7405685 0.2703247
vt 0.7400996 0.2814325
vt 0.7453542 0.2814325
vt 0.7169694 0.3498991
vt 0.7214193 0.3441838
vt 0.7093795 0.344471
vt 0.7138551 0.3521913

usemtl Standard0
usemap Standard0
f 2/2/2 1/1/1 3/3/3
f 5/5/5 4/4/4 6/6/6
f 8/8/8 7/7/7 9/9/9
f 11/11/11 10/10/10 12/12/12
f 14/14/14 13/13/13 15/15/15
f 17/17/17 16/16/16 18/18/18
f 20/20/20 19/19/19 21/21/21
f 23/23/23 22/22/22 24/24/24
f 24/24/24 22/22/22 25/25/25
f 24/24/24 25/25/25 26/26/26
f 22/22/22 27/27/27 25/25/25
f 22/22/22 28/28/28 27/27/27
f 26/26/26 25/25/25 29/29/29
f 25/25/25 27/27/27 29/29/29
f 26/26/26 29/29/29 30/30/30
f 30/30/30 29/29/29 31/31/31
f 32/32/32 30/30/30 31/31/31
f 31/31/31 29/29/29 33/33/33
f 29/29/29 27/27/27 33/33/33
f 32/32/32 31/31/31 34/34/34
f 31/31/31 33/33/33 34/34/34
f 32/32/32 34/34/34 35/35/35
f 32/32/32 35/35/35 36/36/36
f 35/35/35 34/34/34 37/37/37
f 34/34/34 33/33/33 38/38/38
f 37/37/37 34/34/34 38/38/38
f 33/33/33 27/27/27 39/39/39
f 38/38/38 33/33/33 39/39/39
f 28/28/28 40/40/40 27/27/27
f 39/39/39 27/27/27 40/40/40
f 41/41/41 37/37/37 38/38/38
f 41/41/41 42/42/42 37/37/37
f 41/41/41 38/38/38 43/43/43
f 43/43/43 38/38/38 39/39/39
f 41/41/41 43/43/43 44/44/44
f 44/44/44 43/43/43 45/45/45
f 45/45/45 43/43/43 46/46/46
f 43/43/43 39/39/39 46/46/46
f 45/45/45 46/46/46 47/47/47
f 46/46/46 39/39/39 48/48/48
f 47/47/47 46/46/46 48/48/48
f 48/48/48 39/39/39 40/40/40
f 47/47/47 48/48/48 49/49/49
f 49/49/49 48/48/48 50/50/50
f 50/50/50 48/48/48 40/40/40
f 51/51/51 49/49/49 50/50/50
f 50/50/50 40/40/40 52/52/52
f 51/51/51 50/50/50 52/52/52
f 52/52/52 40/40/40 28/28/28
f 51/51/51 52/52/52 53/53/53
f 54/54/54 52/52/52 28/28/28
f 53/53/53 52/52/52 54/54/54
f 56/56/56 55/55/55 57/57/57
f 56/56/56 57/57/57 58/58/58
f 58/58/58 57/57/57 59/59/59
f 58/58/58 59/59/59 60/60/60
f 62/62/62 61/61/61 63/63/63
f 63/63/63 61/61/61 64/64/64
f 66/66/66 65/65/65 67/67/67
f 67/67/67 65/65/65 68/68/68
f 70/70/70 69/69/69 71/71/71
f 71/71/71 69/69/69 72/72/72
f 74/74/74 73/73/73 75/75/75
f 75/75/75 73/73/73 76/76/76
f 78/78/78 77/77/77 79/79/79
f 79/79/79 77/77/77 80/80/80
f 82/82/82 81/81/81 83/83/83
f 83/83/83 81/81/81 84/84/84
f 86/86/86 85/85/85 87/87/87
f 87/87/87 85/85/85 88/88/88
f 90/90/90 89/89/89 91/91/91
f 91/91/91 89/89/89 92/92/92
f 94/94/94 93/93/93 95/95/95
f 95/95/95 93/93/93 96/96/96
f 98/98/98 97/97/97 99/99/99
f 99/99/99 97/97/97 100/100/100
f 102/102/102 101/101/101 103/103/103
f 103/103/103 101/101/101 104/104/104
