g fourLegLight_light01
v 0.3418048 -0.338092 0.1244009
v 0.3393502 -0.2646135 0.1244009
v 0.3944409 -0.2943546 0.1244009
v 0.3181447 -0.2841866 0.1244009
v 0.3181447 -0.2841866 0.06225602
v 0.3393502 -0.2646135 0.06225602
v -0.3189357 -0.2841866 0.06225602
v -0.3401411 -0.2646135 0.06225602
v -0.3189357 -0.2841866 0.1244009
v -0.3189357 -0.2841866 0.1244009
v 0.3181447 -0.2841866 0.1244009
v -0.3425958 -0.338092 0.1244009
v 0.3418048 -0.338092 0.1244009
v -0.3401411 -0.2646135 0.1244009
v -0.3401411 -0.2646135 0.06225602
v -0.3425958 -0.338092 0.1244009
v -0.3952318 -0.2943546 0.1244009
v -0.3425958 0.117584 0.1244009
v -0.3425958 0.117584 -0.08286486
v 0.3418048 0.117584 0.1244009
v 0.3418048 0.117584 -0.08286488
v 0.3418048 0.0558381 -0.1446105
v -0.3425958 0.0558381 -0.1446105
v 0.3418048 -0.1566317 -0.1446105
v -0.3425958 -0.1566317 -0.1446105
v 0.3418048 -0.338092 0.03684987
v -0.3425958 -0.338092 0.03684986
v -0.3425958 -0.338092 0.1244009
v 0.3418048 -0.338092 0.1244009
v -0.3952318 0.07124293 0.1244009
v -0.3401411 0.04150153 0.1244009
v -0.3952318 -0.2943546 0.1244009
v -0.3401411 -0.2646135 0.1244009
v -0.3401411 -0.2646135 0.06225602
v -0.3401411 0.04150153 0.06225602
v 0.3393502 -0.2646135 0.06225602
v 0.3393502 0.04150153 0.06225602
v 0.3393502 -0.2646135 0.1244009
v 0.3393502 0.04150153 0.1244009
v 0.3944409 -0.2943546 0.1244009
v 0.3944409 0.07124293 0.1244009
v 0.3181447 0.06367858 0.06225602
v 0.3181447 0.06367858 0.1244009
v 0.3393502 0.04150153 0.1244009
v 0.3418048 0.117584 0.1244009
v 0.3944409 0.07124293 0.1244009
v -0.3189357 0.06367858 0.06225602
v 0.3181447 0.06367858 0.1244009
v -0.3401411 0.04150153 0.1244009
v -0.3189357 0.06367858 0.1244009
v 0.3418048 0.117584 0.1244009
v -0.3425958 0.117584 0.1244009
v -0.3189357 0.06367858 0.1244009
v -0.3425958 0.117584 0.1244009
v -0.3952318 0.07124293 0.1244009
v -0.3952318 0.07124293 -0.06735215
v -0.3425958 0.117584 0.1244009
v -0.3952318 0.07124293 0.1244009
v -0.3425958 0.117584 -0.08286486
v -0.3425958 0.0558381 -0.1446105
v -0.3952318 0.03772208 -0.1008732
v -0.3952318 -0.138515 -0.1008732
v -0.3425958 -0.1566317 -0.1446105
v -0.3952318 -0.2943546 0.05496642
v -0.3952318 -0.2943546 0.1244009
v -0.3425958 -0.338092 0.03684986
v -0.3425958 -0.338092 0.1244009
v 0.3418048 -0.338092 0.1244009
v 0.3944409 -0.2943546 0.05496644
v 0.3418048 -0.338092 0.03684987
v 0.3944409 -0.2943546 0.1244009
v 0.3418048 -0.1566317 -0.1446105
v 0.3944409 0.07124293 0.1244009
v 0.3944409 -0.138515 -0.1008732
v 0.3418048 0.0558381 -0.1446105
v 0.3944409 0.07124293 -0.06735215
v 0.3418048 0.117584 0.1244009
v 0.3418048 0.117584 -0.08286488
v 0.3944409 0.03772208 -0.1008732

vn 0 0 1
vn -0.5379056 0.2355187 0.8094372
vn 0 0 1
vn -0.2189727 0.5601122 0.7989526
vn -0.28169 0.7205528 0.6336042
vn -0.7136273 0.3124542 0.6269836
vn 0.28169 0.7205528 0.6336042
vn 0.7136273 0.3124542 0.6269836
vn 0.2189727 0.5601122 0.7989526
vn 0.2189727 0.5601122 0.7989526
vn -0.2189727 0.5601122 0.7989526
vn 0 0 1
vn 0 0 1
vn 0.5379056 0.2355187 0.8094372
vn 0.7136273 0.3124542 0.6269836
vn 0 0 1
vn 0 0 1
vn -0.3531551 0.9355648 0
vn -0.3378789 0.8708369 -0.357045
vn 0.3531548 0.9355649 0
vn 0.3378789 0.8708369 -0.357045
vn 0.3318355 0.3609814 -0.8715375
vn -0.3318355 0.3609814 -0.8715375
vn 0.3318355 -0.3609814 -0.8715375
vn -0.3318355 -0.3609814 -0.8715375
vn 0.3318355 -0.8715375 -0.3609814
vn -0.3318355 -0.8715375 -0.3609814
vn -0.3397601 -0.9405121 0
vn 0.3397596 -0.9405123 0
vn 0 0 1
vn 0.5553025 -0.2227619 0.8012592
vn 0 0 1
vn 0.5379056 0.2355187 0.8094372
vn 0.7136273 0.3124542 0.6269836
vn 0.7191609 -0.2885006 0.6321194
vn -0.7136273 0.3124542 0.6269836
vn -0.7191609 -0.2885006 0.6321194
vn -0.5379056 0.2355187 0.8094372
vn -0.5553025 -0.2227619 0.8012592
vn 0 0 1
vn 0 0 1
vn -0.3057115 -0.7152802 0.6284224
vn -0.2320049 -0.5428706 0.807134
vn -0.5553025 -0.2227619 0.8012592
vn 0 0 1
vn 0 0 1
vn 0.3057115 -0.7152802 0.6284224
vn -0.2320049 -0.5428706 0.807134
vn 0.5553025 -0.2227619 0.8012592
vn 0.2320049 -0.5428706 0.807134
vn 0 0 1
vn 0 0 1
vn 0.2320049 -0.5428706 0.807134
vn 0 0 1
vn 0 0 1
vn -0.8786116 0.4383444 -0.189462
vn -0.3531551 0.9355648 0
vn -0.9112626 0.4118258 0
vn -0.3378789 0.8708369 -0.357045
vn -0.3318355 0.3609814 -0.8715375
vn -0.8748047 0.1854046 -0.4475958
vn -0.8748047 -0.1854046 -0.4475958
vn -0.3318355 -0.3609814 -0.8715375
vn -0.8748047 -0.4475958 -0.1854046
vn -0.9052891 -0.424796 0
vn -0.3318355 -0.8715375 -0.3609814
vn -0.3397601 -0.9405121 0
vn 0.3397596 -0.9405123 0
vn 0.8748047 -0.4475958 -0.1854046
vn 0.3318355 -0.8715375 -0.3609814
vn 0.9052889 -0.4247964 0
vn 0.3318355 -0.3609814 -0.8715375
vn 0.9112624 0.4118261 0
vn 0.8748047 -0.1854046 -0.4475958
vn 0.3318355 0.3609814 -0.8715375
vn 0.8786116 0.4383444 -0.189462
vn 0.3531548 0.9355649 0
vn 0.3378789 0.8708369 -0.357045
vn 0.8747926 0.1854021 -0.4476202

vt 0.8498541 0.3137043
vt 0.8497683 0.3162746
vt 0.8516954 0.3152342
vt 0.8490265 0.3155899
vt 0.8475521 0.3171873
vt 0.8482938 0.3178719
vt 0.8252674 0.3171873
vt 0.8245257 0.3178719
vt 0.823793 0.3155899
vt 0.8252674 0.3150135
vt 0.8475521 0.3150135
vt 0.8244398 0.3131279
vt 0.8483797 0.3131279
vt 0.8230512 0.3162746
vt 0.8245257 0.3178719
vt 0.8229654 0.3137043
vt 0.8211241 0.3152342
vt 0.7873803 0.2822777
vt 0.7873803 0.2895278
vt 0.8113202 0.2822777
vt 0.8113202 0.2895278
vt 0.8113202 0.2925822
vt 0.7873803 0.2925822
vt 0.8113202 0.3000143
vt 0.7873803 0.3000143
vt 0.8113202 0.3089908
vt 0.7873803 0.3089908
vt 0.7873803 0.3120533
vt 0.8113202 0.3120533
vt 0.8204248 0.32962
vt 0.8223519 0.3285796
vt 0.8204248 0.3168316
vt 0.8223518 0.3178719
vt 0.8245257 0.3178719
vt 0.8245257 0.3285796
vt 0.8482938 0.3178719
vt 0.8482938 0.3285796
vt 0.8504676 0.3178719
vt 0.8504676 0.3285796
vt 0.8523947 0.3168316
vt 0.8523947 0.32962
vt 0.8475521 0.3293554
vt 0.8491232 0.3308577
vt 0.849865 0.3300819
vt 0.8499509 0.3327432
vt 0.851792 0.3311222
vt 0.8252674 0.3293554
vt 0.8475521 0.3315292
vt 0.8229545 0.330082
vt 0.8252674 0.3315292
vt 0.8483797 0.3334148
vt 0.8244398 0.3334148
vt 0.8236963 0.3308577
vt 0.8228686 0.3327433
vt 0.8210275 0.3311223
vt 0.8409439 0.2971331
vt 0.8475395 0.3005847
vt 0.8478665 0.2978601
vt 0.839706 0.2994971
vt 0.8374093 0.2968086
vt 0.83989 0.2958819
vt 0.8402742 0.2901585
vt 0.8379719 0.2890603
vt 0.8454481 0.2849733
vt 0.8478673 0.284786
vt 0.844378 0.2827472
vt 0.8475664 0.2822777
vt 0.7596668 0.3511761
vt 0.7618903 0.3540478
vt 0.7630812 0.351699
vt 0.759343 0.3538586
vt 0.7695205 0.3583801
vt 0.7594141 0.3669184
vt 0.7671819 0.3593197
vt 0.7695205 0.3661284
vt 0.7659971 0.3662578
vt 0.7596848 0.3694994
vt 0.7671236 0.3685972
vt 0.7671416 0.36507

usemtl Standard0
usemap Standard0
f 2/2/2 1/1/1 3/3/3
f 2/2/2 4/4/4 1/1/1
f 5/5/5 4/4/4 2/2/2
f 5/5/5 2/2/2 6/6/6
f 7/7/7 5/5/5 6/6/6
f 7/7/7 6/6/6 8/8/8
f 8/8/8 9/9/9 7/7/7
f 10/10/10 5/5/5 7/7/7
f 10/10/10 11/11/11 5/5/5
f 12/12/12 11/11/11 10/10/10
f 12/12/12 13/13/13 11/11/11
f 15/15/15 14/14/14 9/9/9
f 14/14/14 16/16/16 9/9/9
f 14/14/14 17/17/17 16/16/16
f 19/19/19 18/18/18 20/20/20
f 19/19/19 20/20/20 21/21/21
f 19/19/19 21/21/21 22/22/22
f 19/19/19 22/22/22 23/23/23
f 24/24/24 23/23/23 22/22/22
f 24/24/24 25/25/25 23/23/23
f 26/26/26 25/25/25 24/24/24
f 26/26/26 27/27/27 25/25/25
f 26/26/26 28/28/28 27/27/27
f 26/26/26 29/29/29 28/28/28
f 31/31/31 30/30/30 32/32/32
f 31/31/31 32/32/32 33/33/33
f 31/31/31 33/33/33 34/34/34
f 31/31/31 34/34/34 35/35/35
f 35/35/35 34/34/34 36/36/36
f 35/35/35 36/36/36 37/37/37
f 38/38/38 37/37/37 36/36/36
f 38/38/38 39/39/39 37/37/37
f 40/40/40 39/39/39 38/38/38
f 40/40/40 41/41/41 39/39/39
f 35/35/35 37/37/37 42/42/42
f 37/37/37 43/43/43 42/42/42
f 37/37/37 44/44/44 43/43/43
f 44/44/44 45/45/45 43/43/43
f 44/44/44 46/46/46 45/45/45
f 35/35/35 42/42/42 47/47/47
f 48/48/48 47/47/47 42/42/42
f 49/49/49 35/35/35 47/47/47
f 48/48/48 50/50/50 47/47/47
f 51/51/51 50/50/50 48/48/48
f 51/51/51 52/52/52 50/50/50
f 49/49/49 47/47/47 53/53/53
f 54/54/54 49/49/49 53/53/53
f 54/54/54 55/55/55 49/49/49
f 57/57/57 56/56/56 58/58/58
f 57/57/57 59/59/59 56/56/56
f 60/60/60 56/56/56 59/59/59
f 60/60/60 61/61/61 56/56/56
f 60/60/60 62/62/62 61/61/61
f 56/56/56 61/61/61 62/62/62
f 62/62/62 58/58/58 56/56/56
f 60/60/60 63/63/63 62/62/62
f 64/64/64 58/58/58 62/62/62
f 64/64/64 62/62/62 63/63/63
f 58/58/58 64/64/64 65/65/65
f 64/64/64 63/63/63 66/66/66
f 67/67/67 65/65/65 64/64/64
f 67/67/67 64/64/64 66/66/66
f 69/69/69 68/68/68 70/70/70
f 69/69/69 71/71/71 68/68/68
f 72/72/72 69/69/69 70/70/70
f 69/69/69 73/73/73 71/71/71
f 72/72/72 74/74/74 69/69/69
f 73/73/73 69/69/69 74/74/74
f 75/75/75 74/74/74 72/72/72
f 74/74/74 76/76/76 73/73/73
f 77/77/77 73/73/73 76/76/76
f 77/77/77 76/76/76 78/78/78
f 76/76/76 75/75/75 78/78/78
f 74/74/74 79/79/79 76/76/76
f 76/76/76 79/79/79 75/75/75
f 75/75/75 79/79/79 74/74/74
